<svg width="30" height="30" viewBox="0 0 30 30" fill="none" xmlns="http://www.w3.org/2000/svg">
<path fill-rule="evenodd" clip-rule="evenodd" d="M3.08646 8.71125C3.17355 8.62394 3.277 8.55468 3.3909 8.50741C3.5048 8.46015 3.6269 8.43583 3.75021 8.43583C3.87352 8.43583 3.99563 8.46015 4.10952 8.50741C4.22342 8.55468 4.32688 8.62394 4.41396 8.71125L15.0002 19.2994L25.5865 8.71125C25.6736 8.62409 25.7771 8.55494 25.891 8.50777C26.0049 8.4606 26.1269 8.43632 26.2502 8.43632C26.3735 8.43632 26.4955 8.4606 26.6094 8.50777C26.7233 8.55494 26.8268 8.62409 26.914 8.71125C27.0011 8.79842 27.0703 8.9019 27.1174 9.01578C27.1646 9.12967 27.1889 9.25173 27.1889 9.375C27.1889 9.49827 27.1646 9.62033 27.1174 9.73422C27.0703 9.84811 27.0011 9.95159 26.914 10.0388L15.664 21.2888C15.5769 21.3761 15.4734 21.4453 15.3595 21.4926C15.2456 21.5398 15.1235 21.5642 15.0002 21.5642C14.8769 21.5642 14.7548 21.5398 14.6409 21.4926C14.527 21.4453 14.4235 21.3761 14.3365 21.2888L3.08646 10.0388C2.99916 9.95167 2.92989 9.84821 2.88263 9.73431C2.83536 9.62042 2.81104 9.49831 2.81104 9.375C2.81104 9.25169 2.83536 9.12958 2.88263 9.01569C2.92989 8.90179 2.99916 8.79834 3.08646 8.71125Z" fill="#F2F2F2"/>
</svg>
