<svg width="30" height="31" viewBox="0 0 30 31" fill="none" xmlns="http://www.w3.org/2000/svg">
<path d="M21.289 12.3109C21.465 12.129 21.5639 11.8823 21.5639 11.625C21.5639 11.3677 21.465 11.121 21.289 10.9391C21.1129 10.7572 20.8742 10.655 20.6252 10.655C20.3763 10.655 20.1375 10.7572 19.9615 10.9391L15.0002 16.0677L12.8515 13.8454C12.7643 13.7553 12.6608 13.6839 12.5469 13.6351C12.433 13.5864 12.311 13.5613 12.1877 13.5613C12.0644 13.5613 11.9424 13.5864 11.8285 13.6351C11.7146 13.6839 11.6111 13.7553 11.524 13.8454C11.4368 13.9354 11.3676 14.0424 11.3205 14.1601C11.2733 14.2777 11.249 14.4039 11.249 14.5312C11.249 14.6586 11.2733 14.7848 11.3205 14.9024C11.3676 15.0201 11.4368 15.1271 11.524 15.2171L14.3365 18.1234C14.4235 18.2136 14.527 18.2852 14.6409 18.334C14.7548 18.3828 14.8769 18.408 15.0002 18.408C15.1235 18.408 15.2456 18.3828 15.3595 18.334C15.4734 18.2852 15.5769 18.2136 15.664 18.1234L21.289 12.3109Z" fill="#F2F2F2"/>
<path d="M0.9375 1.9375C0.68886 1.9375 0.450403 2.03956 0.274587 2.22124C0.0987721 2.40292 0 2.64932 0 2.90625C0 3.16318 0.0987721 3.40958 0.274587 3.59126C0.450403 3.77294 0.68886 3.875 0.9375 3.875H3.01875L3.77062 6.98856L6.57938 22.4595C6.61959 22.6815 6.7336 22.882 6.90171 23.0263C7.06981 23.1707 7.28144 23.2498 7.5 23.25H9.375C8.38044 23.25 7.42661 23.6583 6.72335 24.385C6.02009 25.1117 5.625 26.0973 5.625 27.125C5.625 28.1527 6.02009 29.1383 6.72335 29.865C7.42661 30.5917 8.38044 31 9.375 31C10.3696 31 11.3234 30.5917 12.0267 29.865C12.7299 29.1383 13.125 28.1527 13.125 27.125C13.125 26.0973 12.7299 25.1117 12.0267 24.385C11.3234 23.6583 10.3696 23.25 9.375 23.25H22.5C21.5054 23.25 20.5516 23.6583 19.8484 24.385C19.1451 25.1117 18.75 26.0973 18.75 27.125C18.75 28.1527 19.1451 29.1383 19.8484 29.865C20.5516 30.5917 21.5054 31 22.5 31C23.4946 31 24.4484 30.5917 25.1516 29.865C25.8549 29.1383 26.25 28.1527 26.25 27.125C26.25 26.0973 25.8549 25.1117 25.1516 24.385C24.4484 23.6583 23.4946 23.25 22.5 23.25H24.375C24.5936 23.2498 24.8052 23.1707 24.9733 23.0263C25.1414 22.882 25.2554 22.6815 25.2956 22.4595L28.1081 6.9595C28.1335 6.81968 28.1287 6.67582 28.0941 6.53813C28.0596 6.40044 27.9961 6.27229 27.9082 6.16281C27.8204 6.05332 27.7102 5.96517 27.5857 5.90463C27.4611 5.84409 27.3252 5.81263 27.1875 5.8125H5.41875L4.65937 2.67181C4.60877 2.46214 4.49177 2.27598 4.327 2.14292C4.16222 2.00987 3.95912 1.93756 3.75 1.9375H0.9375ZM8.27812 21.3125L5.81625 7.75H26.0588L23.5969 21.3125H8.27812ZM11.25 27.125C11.25 27.6389 11.0525 28.1317 10.7008 28.495C10.3492 28.8584 9.87228 29.0625 9.375 29.0625C8.87772 29.0625 8.40081 28.8584 8.04918 28.495C7.69754 28.1317 7.5 27.6389 7.5 27.125C7.5 26.6111 7.69754 26.1183 8.04918 25.755C8.40081 25.3916 8.87772 25.1875 9.375 25.1875C9.87228 25.1875 10.3492 25.3916 10.7008 25.755C11.0525 26.1183 11.25 26.6111 11.25 27.125ZM24.375 27.125C24.375 27.6389 24.1775 28.1317 23.8258 28.495C23.4742 28.8584 22.9973 29.0625 22.5 29.0625C22.0027 29.0625 21.5258 28.8584 21.1742 28.495C20.8225 28.1317 20.625 27.6389 20.625 27.125C20.625 26.6111 20.8225 26.1183 21.1742 25.755C21.5258 25.3916 22.0027 25.1875 22.5 25.1875C22.9973 25.1875 23.4742 25.3916 23.8258 25.755C24.1775 26.1183 24.375 26.6111 24.375 27.125Z" fill="#F2F2F2"/>
</svg>
