<svg width="47" height="47" viewBox="0 0 47 47" fill="none" xmlns="http://www.w3.org/2000/svg">
<path d="M0 1.5625C0 1.1481 0.16462 0.750671 0.457646 0.457646C0.750671 0.16462 1.1481 0 1.5625 0H6.25C6.59854 9.62859e-05 6.93703 0.116721 7.21166 0.331327C7.48629 0.545934 7.68128 0.8462 7.76562 1.18437L9.03125 6.25H45.3125C45.5436 6.25014 45.7718 6.30153 45.9806 6.40047C46.1894 6.49942 46.3737 6.64345 46.5201 6.82219C46.6666 7.00092 46.7716 7.20992 46.8276 7.43413C46.8835 7.65833 46.889 7.89215 46.8438 8.11875L43.7188 23.7437C43.6504 24.0845 43.4704 24.3927 43.2072 24.6196C42.944 24.8466 42.6127 24.9793 42.2656 24.9969L12.9 26.4719L13.7969 31.25H40.625C41.0394 31.25 41.4368 31.4146 41.7299 31.7076C42.0229 32.0007 42.1875 32.3981 42.1875 32.8125C42.1875 33.2269 42.0229 33.6243 41.7299 33.9174C41.4368 34.2104 41.0394 34.375 40.625 34.375H12.5C12.1357 34.3747 11.783 34.2471 11.5028 34.0142C11.2227 33.7814 11.0327 33.4581 10.9656 33.1L6.28125 8.14688L5.03125 3.125H1.5625C1.1481 3.125 0.750671 2.96038 0.457646 2.66735C0.16462 2.37433 0 1.9769 0 1.5625ZM9.69375 9.375L12.3187 23.3719L40.8938 21.9375L43.4062 9.375H9.69375ZM15.625 34.375C13.9674 34.375 12.3777 35.0335 11.2056 36.2056C10.0335 37.3777 9.375 38.9674 9.375 40.625C9.375 42.2826 10.0335 43.8723 11.2056 45.0444C12.3777 46.2165 13.9674 46.875 15.625 46.875C17.2826 46.875 18.8723 46.2165 20.0444 45.0444C21.2165 43.8723 21.875 42.2826 21.875 40.625C21.875 38.9674 21.2165 37.3777 20.0444 36.2056C18.8723 35.0335 17.2826 34.375 15.625 34.375ZM37.5 34.375C35.8424 34.375 34.2527 35.0335 33.0806 36.2056C31.9085 37.3777 31.25 38.9674 31.25 40.625C31.25 42.2826 31.9085 43.8723 33.0806 45.0444C34.2527 46.2165 35.8424 46.875 37.5 46.875C39.1576 46.875 40.7473 46.2165 41.9194 45.0444C43.0915 43.8723 43.75 42.2826 43.75 40.625C43.75 38.9674 43.0915 37.3777 41.9194 36.2056C40.7473 35.0335 39.1576 34.375 37.5 34.375ZM15.625 37.5C16.4538 37.5 17.2487 37.8292 17.8347 38.4153C18.4208 39.0013 18.75 39.7962 18.75 40.625C18.75 41.4538 18.4208 42.2487 17.8347 42.8347C17.2487 43.4208 16.4538 43.75 15.625 43.75C14.7962 43.75 14.0013 43.4208 13.4153 42.8347C12.8292 42.2487 12.5 41.4538 12.5 40.625C12.5 39.7962 12.8292 39.0013 13.4153 38.4153C14.0013 37.8292 14.7962 37.5 15.625 37.5ZM37.5 37.5C38.3288 37.5 39.1237 37.8292 39.7097 38.4153C40.2958 39.0013 40.625 39.7962 40.625 40.625C40.625 41.4538 40.2958 42.2487 39.7097 42.8347C39.1237 43.4208 38.3288 43.75 37.5 43.75C36.6712 43.75 35.8763 43.4208 35.2903 42.8347C34.7042 42.2487 34.375 41.4538 34.375 40.625C34.375 39.7962 34.7042 39.0013 35.2903 38.4153C35.8763 37.8292 36.6712 37.5 37.5 37.5Z" fill="#F2F2F2"/>
</svg>
